<?xml version="1.0" encoding="UTF-8" standalone="no"?>
<!-- Created with Inkscape (http://www.inkscape.org/) -->

<svg
   width="820.20032"
   height="820.20032"
   viewBox="0 0 820.20032 820.20032"
   version="1.1"
   id="svg1"
   xmlns="http://www.w3.org/2000/svg"
   xmlns:svg="http://www.w3.org/2000/svg">
  <defs
     id="defs1" />
  <g
     id="layer1"
     transform="translate(-101.89984,-101.89984)">
    <path
       id="text3-1-1"
       style="font-weight:bold;font-size:341.333px;font-family:Sans;-inkscape-font-specification:'Sans, Bold';stroke:#000000;stroke-width:1.00157"
       d="m 831.02456,840.39996 h -60.07461 l -53.93061,-87.72258 -54.27195,87.72258 H 604.72078 L 685.6167,714.78942 609.49944,596.6882 h 58.02661 L 717.702,679.97345 766.85396,596.6882 H 825.2219 L 748.76331,717.86141 Z M 739.54731,225.56123 q -29.35463,0 -46.42128,22.18665 -16.72532,21.84531 -16.72532,60.41594 0,38.57063 16.04265,60.07461 16.38398,21.16264 49.15195,21.16264 16.04265,0 30.71997,-3.75466 15.01866,-3.75466 30.03731,-9.55732 v 44.37329 q -29.01331,12.28799 -66.55994,12.28799 -38.91196,0 -64.1706,-15.35999 -24.91731,-15.70132 -37.2053,-43.69062 -11.94666,-28.33064 -11.94666,-65.87727 0,-36.86397 13.65332,-65.19461 13.65332,-28.33064 39.93597,-44.37329 26.28264,-16.04265 64.1706,-16.04265 18.09065,0 36.52263,4.09599 18.77332,3.75467 35.49864,11.94666 l -17.06666,41.64263 q -12.28798,-5.80266 -26.28264,-9.89866 -13.65332,-4.43733 -29.35464,-4.43733 z m -447.5853,370.62623 q 50.17596,0 73.04527,15.01866 22.86931,14.67732 22.86931,45.73862 0,22.86931 -12.28799,36.52263 -11.94665,13.31199 -29.0133,17.06665 v 1.70667 q 11.94665,2.38933 22.86931,8.53332 10.92265,6.144 17.74931,17.74932 6.82666,11.60532 6.82666,30.71997 0,33.45063 -24.23464,52.22395 -23.89331,18.43198 -65.53594,18.43198 H 213.11409 V 596.18746 Z m 2.73067,97.62124 q 22.18664,0 30.71997,-8.19199 8.87466,-8.19199 8.87466,-21.50398 0,-13.99465 -10.23999,-20.47998 -10.23999,-6.82666 -31.74397,-6.82666 h -26.96531 v 57.00261 z m -29.35464,39.2533 v 65.53594 h 33.1093 q 23.21065,0 32.0853,-9.21599 9.216,-9.55733 9.216,-24.23465 0,-13.31199 -9.216,-22.52798 -9.21599,-9.55732 -33.79196,-9.55732 z M 363.98328,428.83624 345.20996,371.4923 h -86.01591 l -18.77332,57.34394 h -56.31995 l 85.67459,-244.73576 h 64.1706 l 86.35726,244.73576 z M 316.19666,274.89506 q -1.36533,-5.12 -4.43733,-15.35999 -2.73066,-10.23999 -5.46133,-20.82131 -2.73066,-10.92266 -4.43733,-17.74932 -1.36533,7.85066 -4.09599,18.09065 -2.38934,9.89866 -4.77867,19.79731 -2.38933,9.55733 -4.09599,16.04266 l -17.40799,52.90661 h 61.78128 z M 921.59937,512 c 0,11.08 -11.41759,20 -25.59997,20 H 128.0006 c -14.18238,0 -25.59997,-8.92 -25.59997,-20 0,-11.08 11.41759,-20 25.59997,-20 h 767.9988 c 14.18238,0 25.59997,8.92 25.59997,20 z M 512,102.40063 c 11.07998,0 19.99997,11.41759 19.99997,25.59997 v 767.9988 c 0,14.18238 -8.91999,25.59997 -19.99997,25.59997 -11.07998,0 -19.99997,-11.41759 -19.99997,-25.59997 V 128.0006 c 0,-14.18238 8.91999,-25.59997 19.99997,-25.59997 z" />
  </g>
</svg>
